<?xml version="1.0" standalone="no"?>
<!DOCTYPE svg PUBLIC "-//W3C//DTD SVG 20010904//EN"
 "http://www.w3.org/TR/2001/REC-SVG-20010904/DTD/svg10.dtd">
<svg version="1.0" xmlns="http://www.w3.org/2000/svg"
 width="1280.000000pt" height="1206.000000pt" viewBox="0 0 1280.000000 1206.000000"
 preserveAspectRatio="xMidYMid meet">
<g transform="translate(0.000000,1206.000000) scale(0.100000,-0.100000)"
fill="#000000" stroke="none">
<path d="M6224 11938 c-109 -96 -1088 -963 -4989 -4418 -264 -234 -646 -571
-848 -750 -202 -178 -366 -330 -365 -336 4 -14 640 -734 649 -734 3 0 71 57
150 128 1064 940 5545 4889 5556 4895 9 6 21 3 31 -6 9 -8 1287 -1139 2838
-2513 2605 -2308 2824 -2499 2856 -2499 33 0 51 18 358 364 235 264 321 367
314 377 -5 7 -508 453 -1119 991 -610 538 -2028 1788 -3150 2777 -1122 989
-2048 1805 -2057 1813 -9 8 -34 17 -56 20 -38 5 -42 3 -168 -109z"/>
<path d="M6264 9783 c-60 -54 -1065 -944 -2232 -1977 l-2122 -1879 2 -2871 3
-2871 28 -47 c33 -57 74 -89 147 -117 55 -21 61 -21 1467 -21 l1413 0 2 1272
3 1273 28 57 c31 64 70 101 137 132 45 21 48 21 1245 21 l1200 0 45 -21 c61
-29 108 -78 139 -144 l26 -55 3 -1267 3 -1268 1457 0 c1351 1 1460 2 1492 18
40 20 70 61 102 140 l23 57 0 2860 0 2860 -2180 1923 c-2374 2094 -2291 2022
-2309 2022 -7 0 -61 -44 -122 -97z"/>
</g>
</svg>
